<?xml version="1.0" encoding="utf-8"?>
<!-- Generator: Adobe Illustrator 22.1.0, SVG Export Plug-In . SVG Version: 6.00 Build 0)  -->
<svg version="1.1" id="Layer_1" xmlns="http://www.w3.org/2000/svg" xmlns:xlink="http://www.w3.org/1999/xlink" x="0px" y="0px"
	 viewBox="0 0 50 50" style="enable-background:new 0 0 50 50;" xml:space="preserve">
<style type="text/css">
	.st0{clip-path:url(#SVGID_2_);}
	.st1{fill:#4D4D4D;}
	.st2{fill:#446DC9;}
	.st3{fill:#1E50A8;}
	.st4{fill:#D6D5D4;}
	.st5{fill:#FFFFFF;}
</style>
<g>
	<defs>
		<circle id="SVGID_1_" cx="24.9" cy="25.2" r="22.2"/>
	</defs>
	<clipPath id="SVGID_2_">
		<use xlink:href="#SVGID_1_"  style="overflow:visible;"/>
	</clipPath>
	<g class="st0">
		<path class="st1" d="M32.2,18c0,0,1.1-1.6,1.9-0.1c0.8,1.5,0.2,2.6,0.4,3.7s-0.2,3.2-0.8,3.4c0,0,0.3,3.2,2.7,5.8l1-0.3l1.2,0.8
			c0,0,5.4,1.6,6.1,2.3v13H14.1c0,0,2-4.2,5.1-7c3.1-2.8,3.2-2.5,3.4-2.4c0,0,0.2-0.8-0.7-1c-0.8-0.2-1.7-0.4-3-1.9
			c-1.3-1.6-2.8-2.3-3.7-5.1c-0.8-1.9-1.4-3.4-1.4-5.4c0,0,0.2-0.4-0.2-1.6c-0.1-1-0.2-1.6-0.2-1.6s-0.5-1.9-0.4-2.6
			c0.1-0.7-0.4-1.5,0.9-4.4c1.6-2.8,4.1-4.4,4.1-4.4S22.1,6,27.4,9c1.3,0.7,2.8,1.6,3.4,3.8c1,2.2,1.3,4.3,1.4,5.1"/>
		<g>
			<path class="st2" d="M37.5,30.4c0,0-2.1,0.7-2.3,1.1c-0.1,0.4-1.6,2.8-2.1,4.2c-0.5,1.3-2.5,4-2.9,4.5c-0.4,0.5-2.1,2.8-4.2,2.7
				c-1-0.1-0.9-0.5-0.8-1.2l-2.7-4.8c0,0-2.9,2.2-3.4,2.6c-0.5,0.4-1.3,1-2.8,3.1c-1.5,2.1-2.4,4.2-2.4,4.2l31-0.1V33.6
				c0,0-4.5-2.1-6.3-2.3L37.5,30.4z"/>
			<path class="st3" d="M25.1,41.6c0,0-0.7,0.9,0.2,1.9c1,1,1,1,1.8,0.9c0.9-0.1,2.7-1.2,3.1-1.5s1.4-2.4,2.1-3.5s1.2-1.8,1.5-2.3
				c0.2-0.5,0.9-3,1.4-3.5c0.5-0.5,0.7-1,1.3-1.5c0.5-0.4,1-0.7,1.3-0.8c0.3-0.1,0.5-0.1,0.5-0.1l0.2,0.2c0,0-1.4-0.4-3.5,3.3
				l-4.3,7.8c0,0-1.5,2.2-3.5,2.3s-1.7-0.3-1.7-0.9C25.6,43.3,24.3,42.9,25.1,41.6z"/>
			<path class="st2" d="M36.2,32.9"/>
		</g>
		<path class="st4" d="M32.3,21.5c0,0,0.5,0.6,0,1.3c0,0-0.6,0.5,0.4,0.2l-0.1,2.2h0.1c0,0,0.2,2.2-0.1,3.1c-0.4,1-0.6,1.7-1.4,2.8
			c-0.8,1.1-1.4,2.2-1.4,2.8c-0.2,0.7-0.5,1.6-0.5,1.6s-0.8,1.8-1,2.2c-0.2,0.4-1,1.9-1,2.2s-0.2,1.7-0.5,2.3h-0.2L26.3,43h0.1
			c0,0-1,1.7-0.6,3.6h0.2c0,0-0.2-1.9,0.6-3.4H27l0.4-0.9l-0.4-0.1c0,0,0.3-0.6,0.7-2.3l1.6-3.5c0,0,0.7-1.3,0.8-2.5
			c0.2-1.2,1.4-2.7,1.4-2.7s1.5-2.2,1.6-3.8s0-2.2,0-2.2h0.1c0,0,0.4-3.4-0.3-3.5C32.9,21.7,32.2,20.8,32.3,21.5z"/>
		<path class="st5" d="M16.1,31.3c0,0-0.1,2.8,0.5,4.1c0.6,1.4,1.1,2.9,1.1,3.4c0,0.5,0.1,1,0.1,1v0.8V41l0.5-0.6L18,39.7
			c0,0-0.3-2.6-1.2-4.4C15.9,33.5,16.8,32,16.1,31.3z"/>
	</g>
	<use xlink:href="#SVGID_1_"  style="overflow:visible;fill:none;stroke:#FFFFFF;stroke-miterlimit:10;"/>
</g>
</svg>
