<?xml version="1.0" encoding="utf-8"?>
<!-- Generator: Adobe Illustrator 23.0.0, SVG Export Plug-In . SVG Version: 6.00 Build 0)  -->
<svg version="1.1" id="Layer_1" xmlns="http://www.w3.org/2000/svg" xmlns:xlink="http://www.w3.org/1999/xlink" x="0px" y="0px"
	 viewBox="0 0 1024 1024" style="enable-background:new 0 0 1024 1024;" xml:space="preserve">
<style type="text/css">
	.st0{clip-path:url(#SVGID_2_);}
	.st1{fill:#4D4D4D;}
	.st2{fill:#1B9DFF;}
	.st3{fill:#1E50A8;}
	.st4{fill:#446DC9;}
	.st5{fill:#D6D5D4;}
	.st6{fill:#FFFFFF;}
</style>
<g>
	<defs>
		<circle id="SVGID_1_" cx="511.5" cy="506.8" r="482.8"/>
	</defs>
	<use xlink:href="#SVGID_1_"  style="overflow:visible;fill:#FFFFFF;"/>
	<clipPath id="SVGID_2_">
		<use xlink:href="#SVGID_1_"  style="overflow:visible;"/>
	</clipPath>
	<g class="st0">
		<path class="st1" d="M609.5,345c0,0,27.4-41.1,47.2-3c19.8,38,4.6,67,9.1,94.3s-4.6,80.6-19.8,85.2c0,0,7.6,80.6,68.5,147.6
			l24.3-7.6l30.4,21.3c0,0,137,39.6,155.2,57.8v328.7H153c0,0,50.2-106.5,127.8-178s82.2-63.9,86.7-60.9c0,0,4.6-21.3-16.7-25.9
			c-21.3-4.6-44.1-9.1-76.1-48.7s-71.5-59.3-92.8-127.8c-19.8-47.2-35-85.2-35-135.4c0,0,4.6-10.7-6.1-39.6
			c-1.5-24.3-4.6-39.6-4.6-39.6s-12.2-47.2-10.7-65.4c1.5-18.3-10.7-38,22.8-111.1c41.1-71.5,103.5-111.1,103.5-111.1
			s103.5-83.7,235.9-9.1c33.5,18.3,70,39.6,86.7,95.9c25.9,54.8,32,109.6,35,129.3"/>
		<g>
			<path class="st2" d="M744.2,659.1c0,0-54.1,18.5-57.2,27.8C684,696.2,645.3,758,633,792c-12.4,34-62.6,101.2-73.4,113.6
				c-10.8,12.4-54.1,71.1-106.6,69.5c-26.3-3.1-23.2-13.9-20.1-30.9l-68-120.5c0,0-74.2,55.6-86.5,66.4
				c-12.4,10.8-34,26.3-71.1,78.8C170.2,1021.4,147,1074,147,1074l783.4-1.5V738.7c0,0-114.3-54.1-159.2-57.2L744.2,659.1z"/>
			<path class="st3" d="M431.3,941.4c0,0-18.5,22.9,6.2,47.6s24.7,26.3,46.4,23.2s69.5-30.9,77.3-37.1c7.7-6.2,35.5-61.8,52.5-89.6
				s30.9-44.8,37.1-58.7c6.2-13.9,23.2-75.7,35.5-89.6c12.4-13.9,18.5-26.3,32.4-37.1c13.9-10.8,26.3-17,34-20.1
				c7.7-3.1,13.8-2.4,13.8-2.4l4.8,5.5c0,0-35.5-10.8-88.1,83.4L573.5,962.7c0,0-38.6,55.6-88.1,58.7c-49.4,3.1-43.3-7.7-43.3-21.6
				C442.1,985.9,411.2,975.7,431.3,941.4z"/>
			<path class="st4" d="M712.1,722.2"/>
		</g>
		<path class="st5" d="M613.3,432.5c0,0,12.2,15.2,0,32c0,0-15.2,12.2,9.1,6.1l-1.5,56.3h3c0,0,6.1,54.8-3,79.1
			c-9.1,24.3-16,41.8-35.8,70.8c-19.8,28.9-35,56.3-36.5,71.5c-4.6,16.7-12.2,41.1-12.2,41.1s-19.8,45.7-25.9,56.3
			c-6.1,10.7-25.9,47.2-25.9,54.8c0,7.6-6.1,42.6-12.2,57.8H468l-7.6,19.8h1.5c0,0-25.9,42.6-15.2,91.3h4.6c0,0-6.1-48.7,15.2-86.7
			h12.2l9.1-22.8l-10.7-1.5c0,0,7.6-15.2,16.7-59.3l41.1-88.3c0,0,16.7-33.5,21.3-63.9s36.5-68.5,36.5-68.5s38-54.8,39.6-95.9
			c1.5-41.1,0-56.3,0-56.3h3c0,0,10.7-86.7-7.6-88.3C627.7,437.8,609.5,416.5,613.3,432.5z"/>
		<path class="st6" d="M203.9,681.5c0,0-3.7,69.7,11.5,104.7c15.2,35,27.4,74.6,27.4,86.7c0,12.2,1.5,24.3,1.5,24.3v21.3v7.6
			L258,911l-6.1-18.3c0,0-7.6-65.4-30.4-111.1S221.3,698.5,203.9,681.5z"/>
	</g>
	<use xlink:href="#SVGID_1_"  style="overflow:visible;fill:none;stroke:#4D4D4D;stroke-width:4;stroke-miterlimit:10;"/>
</g>
</svg>
